# xmcd
#
# Track frame offsets:
#	150
#	18487
#	47512
#	66200
#	87175
#	103675
#	118162
#	142762
#	163650
#	181000
#	196300
#	218100
#	237750
#	262562
#	279362
#
# Disc length: 4083
#
# Revision: 2
# Processed by: cddbd v1.5.1PL0 Copyright (c) Steve Scherf et al.
# Submitted via: EasyCDDAExtractor 7.0.6.1
# Normalized: r1:DSETVAR1
#
DISCID=c00ff10f
DTITLE=Various Artist - Billboard
DYEAR=1900
DGENRE=
TTITLE0=James Ingyam and Sally Yeh - I Believe in Love
TTITLE1=Michael Jackson - Heal the World
TTITLE2=Bryan Adams - I Do It for You
TTITLE3=Eric Clapton - Tears in Heaven
TTITLE4=Brother Fouy - Unchained Melody
TTITLE5=©PµØ°· - Songs of Birds
TTITLE6=Michael Bolton - Time Love and Teaderness
TTITLE7=Jon Secada - Angel
TTITLE8=Tina Turner - What's Love Got to Do With It
TTITLE9=Aoron Neville - La Vie Dansaste
TTITLE10=Debbie Gribson - Goodbye
TTITLE11=Billy Ocean - Every Things so Different without You
TTITLE12=Roxette - Listen to Your Heart
TTITLE13=Paul McCartney - Off the Ground
TTITLE14=Glenn Frey - Part of Me Part of you
EXTD=
EXTT0=
EXTT1=
EXTT2=
EXTT3=
EXTT4=
EXTT5=
EXTT6=
EXTT7=
EXTT8=
EXTT9=
EXTT10=
EXTT11=
EXTT12=
EXTT13=
EXTT14=
PLAYORDER=
